#!OML:ASF X:\für Bonn\!DataBase\2005_08_12_Daniel\c3d\Daniel.ASF
:FULLY-SPECIFIED
:DEGREES
2801
root -3.09727 17.7935 -13.7012 7.97644 19.1519 376.114
lowerback 6.67582 -5.57097 -10.2326
upperback -0.226889 -8.33062 -3.60233
thorax -3.06828 -3.98342 2.60396
lowerneck -8.21152 -5.65476 -12.5949
upperneck 9.7939 -7.07085 9.12821
head 5.06142 -3.41928 4.38734
rclavicle 3.6477e-014 -2.52457e-014
rhumerus -80.6416 16.5308 -100.495
rradius 72.2217
rwrist -11.1411
rhand -25.6447 28.2625
rfingers 7.12502
rthumb 0.888897 -1.71544
lclavicle 3.6477e-014 -2.52457e-014
lhumerus -57.424 -10.0894 89.3277
lradius 125.213
lwrist 12.5347
lhand -6.49252 -15.7689
lfingers 7.12502
lthumb 19.3588 13.2875
rfemur -30.2965 -1.17651 21.8744
rtibia 36.962
rfoot -11.0425 -7.21512
rtoes -5.82847
lfemur 8.58902 -1.54949 -28.7118
ltibia 48.4572
lfoot 2.07678 -3.39521
ltoes -17.7191
2802
root -2.97818 17.7264 -13.4215 7.468 18.6989 376.403
lowerback 7.05068 -5.44233 -10.5587
upperback -0.164582 -8.22659 -3.48732
thorax -3.16319 -3.92154 2.92675
lowerneck -8.19164 -5.80343 -13.126
upperneck 9.74027 -7.23439 9.37939
head 5.08944 -3.50467 4.53908
rclavicle -8.44338e-014 -2.42517e-014
rhumerus -80.278 16.1939 -99.7814
rradius 71.7625
rwrist -11.8973
rhand -25.6503 28.4956
rfingers 7.12502
rthumb 0.883504 -1.48231
lclavicle -8.44338e-014 -2.42517e-014
lhumerus -58.2798 -10.942 90.0673
lradius 124.597
lwrist 12.3274
lhand -6.78282 -16.2613
lfingers 7.12502
lthumb 19.0797 12.8228
rfemur -29.6767 -1.29064 21.9888
rtibia 36.3841
rfoot -10.5726 -7.40311
rtoes -3.54798
lfemur 8.48501 -1.22928 -28.6831
ltibia 51.0368
lfoot 1.54452 -3.53956
ltoes -18.7435
2803
root -2.86297 17.6479 -13.146 6.86538 18.2971 376.605
lowerback 7.55348 -5.32935 -10.8394
upperback -0.0729628 -8.15547 -3.32682
thorax -3.29525 -3.87509 3.28672
lowerneck -8.19936 -5.92851 -13.5979
upperneck 9.6417 -7.36476 9.60725
head 5.10248 -3.5718 4.67609
rclavicle -4.43787e-014 -4.65156e-014
rhumerus -79.8394 15.8988 -99.0082
rradius 71.3196
rwrist -12.6709
rhand -25.4151 28.692
rfingers 7.12502
rthumb 1.11065 -1.28483
lclavicle -4.43787e-014 -4.65156e-014
lhumerus -59.0644 -11.6125 90.865
lradius 123.791
lwrist 12.0231
lhand -7.19934 -16.5595
lfingers 7.12502
lthumb 18.6791 12.5637
rfemur -28.9914 -1.65981 22.3057
rtibia 36.1906
rfoot -10.2152 -7.17005
rtoes -1.92881
lfemur 8.27508 -0.875387 -28.474
ltibia 53.7559
lfoot 1.14574 -3.64161
ltoes -19.4193
2804
root -2.75051 17.5603 -12.8753 6.1753 17.8902 376.673
lowerback 8.13266 -5.18585 -10.9177
upperback 0.0619866 -8.03827 -3.2476
thorax -3.46987 -3.80869 3.45937
lowerneck -8.24248 -6.09265 -13.7406
upperneck 9.51572 -7.57168 9.72898
head 5.10624 -3.66902 4.71794
rclavicle 7.61345e-014 -3.45885e-014
rhumerus -79.2318 15.439 -98.3035
rradius 70.8199
rwrist -13.3296
rhand -25.0061 28.8068
rfingers 7.12502
rthumb 1.5057 -1.16763
lclavicle 7.61345e-014 -3.45885e-014
lhumerus -59.8723 -12.2979 91.5247
lradius 122.879
lwrist 11.7414
lhand -7.42024 -16.4408
lfingers 7.12502
lthumb 18.4666 12.7027
rfemur -28.1945 -1.92728 22.6948
rtibia 36.3255
rfoot -10.2008 -6.74748
rtoes 0.176359
lfemur 7.95153 -0.533289 -28.0673
ltibia 56.6326
lfoot 0.911504 -3.62264
ltoes -19.0806
2805
root -2.6421 17.4768 -12.6018 5.46264 17.5193 376.606
lowerback 8.71101 -5.07287 -10.9094
upperback 0.200182 -7.95021 -3.09459
thorax -3.63734 -3.75851 3.66273
lowerneck -8.19484 -6.19706 -13.8768
upperneck 9.26607 -7.70422 9.86034
head 5.04819 -3.73061 4.77092
rclavicle -6.21202e-014 -1.27222e-014
rhumerus -78.4886 15.0611 -97.5854
rradius 70.198
rwrist -13.9026
rhand -24.645 28.7772
rfingers 7.12502
rthumb 1.85447 -1.19445
lclavicle -6.21202e-014 -1.27222e-014
lhumerus -60.6385 -12.7704 92.1148
lradius 121.813
lwrist 11.4407
lhand -7.33944 -16.1533
lfingers 7.12502
lthumb 18.5443 12.9828
rfemur -27.2506 -1.8331 23.098
rtibia 36.7198
rfoot -10.6176 -6.46021
rtoes 3.75772
lfemur 7.40145 -0.178474 -27.4385
ltibia 59.685
lfoot 0.922355 -3.4725
ltoes -17.9238
2806
root -2.53623 17.3824 -12.3333 4.68991 17.1742 376.419
lowerback 9.35115 -4.93913 -10.7593
upperback 0.361484 -7.82617 -2.95356
thorax -3.83979 -3.69187 3.78021
lowerneck -7.95983 -6.30521 -13.7374
upperneck 8.73632 -7.86573 9.82516
head 4.85867 -3.80898 4.7288
rclavicle 2.63887e-014 1.66979e-014
rhumerus -77.4276 14.4991 -96.8615
rradius 69.3357
rwrist -14.1705
rhand -24.3717 28.5198
rfingers 7.12502
rthumb 2.11835 -1.44943
lclavicle 2.63887e-014 1.66979e-014
lhumerus -61.4017 -13.1866 92.6541
lradius 120.592
lwrist 11.1042
lhand -7.04042 -15.6689
lfingers 7.12502
lthumb 18.832 13.4395
rfemur -26.2353 -1.77535 23.6567
rtibia 37.3453
rfoot -11.0982 -6.16492
rtoes 6.69563
lfemur 6.64706 0.449391 -26.3702
ltibia 62.9282
lfoot 1.10326 -3.58688
ltoes -16.745
2807
root -2.43074 17.2798 -12.0689 3.87152 16.8472 376.146
lowerback 10.047 -4.80194 -10.4856
upperback 0.532898 -7.68832 -2.82395
thorax -4.0814 -3.61883 3.82226
lowerneck -7.69037 -6.4149 -13.5022
upperneck 8.17683 -8.03892 9.75633
head 4.65061 -3.89304 4.66203
rclavicle 7.74266e-014 3.18055e-014
rhumerus -76.2575 13.8633 -96.2116
rradius 68.4263
rwrist -14.288
rhand -24.1102 28.1176
rfingers 7.12502
rthumb 2.37097 -1.84901
lclavicle 7.74266e-014 3.18055e-014
lhumerus -62.1656 -13.5301 93.1122
lradius 119.265
lwrist 10.7694
lhand -6.6085 -15.0855
lfingers 7.12502
lthumb 19.2473 13.982
rfemur -25.1803 -1.74092 24.3071
rtibia 38.1862
rfoot -11.7873 -5.89482
rtoes 8.78282
lfemur 5.75215 1.06261 -25.1419
ltibia 66.3275
lfoot 1.12784 -3.57745
ltoes -16.2022
2808
root -2.32771 17.1695 -11.8058 3.06551 16.4692 375.775
lowerback 10.7208 -4.64553 -10.1393
upperback 0.68497 -7.5078 -2.63743
thorax -4.33703 -3.52478 3.8762
lowerneck -7.49529 -6.55903 -13.3341
upperneck 7.76697 -8.24305 9.63742
head 4.50499 -3.99631 4.58619
rclavicle 1.93815e-014 -2.78299e-014
rhumerus -75.2039 13.2715 -95.5659
rradius 67.6223
rwrist -14.2136
rhand -24.0815 27.6879
rfingers 7.12502
rthumb 2.39866 -2.2784
lclavicle 1.93815e-014 -2.78299e-014
lhumerus -62.933 -13.6729 93.588
lradius 117.817
lwrist 10.4745
lhand -5.87046 -14.6239
lfingers 7.12502
lthumb 19.9569 14.3713
rfemur -24.2097 -1.86398 25.0527
rtibia 39.2393
rfoot -12.792 -5.40489
rtoes 10.3687
lfemur 4.73168 1.52463 -23.913
ltibia 69.8248
lfoot 0.986615 -3.20254
ltoes -16.1831
2809
root -2.22514 17.0488 -11.5477 2.30333 16.1189 375.36
lowerback 11.3646 -4.51274 -9.70601
upperback 0.848783 -7.33797 -2.47243
thorax -4.57422 -3.43951 3.85464
lowerneck -7.35814 -6.67487 -12.9651
upperneck 7.36972 -8.41838 9.4591
head 4.35786 -4.08136 4.46199
rclavicle 3.598e-014 3.73715e-014
rhumerus -73.8921 12.6597 -95.0274
rradius 66.634
rwrist -13.8978
rhand -24.2154 27.2655
rfingers 7.12502
rthumb 2.26934 -2.70213
lclavicle 3.598e-014 3.73715e-014
lhumerus -63.7051 -13.7547 93.8996
lradius 116.381
lwrist 10.3485
lhand -5.07907 -14.4793
lfingers 7.12502
lthumb 20.7174 14.4348
rfemur -23.3443 -2.18895 25.8117
rtibia 40.4848
rfoot -14.3754 -4.82089
rtoes 10.9964
lfemur 3.50025 1.96671 -22.5766
ltibia 73.4151
lfoot 0.727848 -2.81882
ltoes -15.9193
2810
root -2.1233 16.9226 -11.2952 1.57452 15.762 374.842
lowerback 11.9692 -4.39083 -9.14882
upperback 1.00116 -7.15323 -2.25608
thorax -4.80992 -3.34942 3.81095
lowerneck -7.27868 -6.81258 -12.7311
upperneck 7.01201 -8.60646 9.31867
head 4.24063 -4.17384 4.36932
rclavicle 4.1546e-014 2.22639e-014
rhumerus -72.2928 12.0026 -94.451
rradius 65.4423
rwrist -13.3379
rhand -24.4296 26.9423
rfingers 7.12502
rthumb 2.06242 -3.02746
lclavicle 4.1546e-014 2.22639e-014
lhumerus -64.4139 -13.7414 94.1456
lradius 114.871
lwrist 10.4981
lhand -4.26601 -14.5118
lfingers 7.12502
lthumb 21.4985 14.3152
rfemur -22.4904 -2.29102 26.5523
rtibia 41.8707
rfoot -16.4882 -4.32263
rtoes 11.7954
lfemur 2.02412 2.44499 -21.0663
ltibia 77.0672
lfoot 0.542838 -2.62723
ltoes -14.6883
